<svg width="24" height="25" viewBox="0 0 24 25" fill="none" xmlns="http://www.w3.org/2000/svg">
<path d="M22 19.5H2V21.5H22V19.5ZM4 15.5C4 16 4.2 16.5 4.6 16.9C5 17.3 5.5 17.5 6 17.5V6.5C5.5 6.5 5 6.7 4.6 7.1C4.2 7.5 4 8 4 8.5V15.5ZM13.5 6.5H10.5C10.5 6.1 10.6 5.7 10.9 5.4C11.2 5.1 11.5 5 12 5C12.4 5 12.8 5.1 13.1 5.4C13.3 5.7 13.5 6.1 13.5 6.5ZM7 6.5V17.5H17V6.5H15C15 5.7 14.7 5 14.1 4.4C13.5 3.8 12.8 3.5 12 3.5C11.2 3.5 10.5 3.8 9.9 4.4C9.3 5 9 5.7 9 6.5H7ZM18 17.5C18.5 17.5 19 17.3 19.4 16.9C19.8 16.5 20 16 20 15.5V8.5C20 8 19.8 7.5 19.4 7.1C19 6.7 18.5 6.5 18 6.5V17.5Z" fill="#90A3BF"/>
</svg>
