<svg width="24" height="25" viewBox="0 0 24 25" fill="none" xmlns="http://www.w3.org/2000/svg">
<path d="M22 15.5C22 18.1 20.8 20.4 18.9 21.8L18.4 21.3L16.3 19.2L17.7 17.8L18.9 19C19.4 18.3 19.8 17.4 19.9 16.5H18V14.5H19.9C19.7 13.6 19.4 12.8 18.9 12L17.7 13.2L16.3 11.8L17.5 10.6C16.8 10.1 15.9 9.7 15 9.6V11.5H13V9.6C12.1 9.8 11.3 10.1 10.5 10.6L13.5 13.6C13.7 13.6 13.8 13.5 14 13.5C14.5304 13.5 15.0391 13.7107 15.4142 14.0858C15.7893 14.4609 16 14.9696 16 15.5C16 16.0304 15.7893 16.5391 15.4142 16.9142C15.0391 17.2893 14.5304 17.5 14 17.5C13.4696 17.5 12.9609 17.2893 12.5858 16.9142C12.2107 16.5391 12 16.0304 12 15.5C12 15.3 12 15.2 12.1 15L9.1 12C8.6 12.7 8.2 13.6 8.1 14.5H10V16.5H8.1C8.3 17.4 8.6 18.2 9.1 19L10.3 17.8L11.7 19.2L9.1 21.8C7.2 20.4 6 18.1 6 15.5C6 13.3783 6.84285 11.3434 8.34315 9.84315C9.84344 8.34285 11.8783 7.5 14 7.5C16.1217 7.5 18.1566 8.34285 19.6569 9.84315C21.1571 11.3434 22 13.3783 22 15.5ZM6.7 5.8L3.4 2.5L2 3.9L5.3 7.2L4 8.5H8V4.5L6.7 5.8Z" fill="#90A3BF"/>
</svg>
