<svg width="22" height="19" viewBox="0 0 22 19" fill="none" xmlns="http://www.w3.org/2000/svg">
<path fill-rule="evenodd" clip-rule="evenodd" d="M0.5 5.75037C0.5 5.33615 0.835786 5.00037 1.25 5.00037H21.25C21.6642 5.00037 22 5.33615 22 5.75037C22 6.16458 21.6642 6.50037 21.25 6.50037H1.25C0.835786 6.50037 0.5 6.16458 0.5 5.75037Z" fill="#3A3A3A"/>
<path fill-rule="evenodd" clip-rule="evenodd" d="M4.5 13.7504C4.5 13.3362 4.83579 13.0004 5.25 13.0004H7.25C7.66421 13.0004 8 13.3362 8 13.7504C8 14.1646 7.66421 14.5004 7.25 14.5004H5.25C4.83579 14.5004 4.5 14.1646 4.5 13.7504Z" fill="#3A3A3A"/>
<path fill-rule="evenodd" clip-rule="evenodd" d="M9 13.7504C9 13.3362 9.33579 13.0004 9.75 13.0004H13.75C14.1642 13.0004 14.5 13.3362 14.5 13.7504C14.5 14.1646 14.1642 14.5004 13.75 14.5004H9.75C9.33579 14.5004 9 14.1646 9 13.7504Z" fill="#3A3A3A"/>
<path fill-rule="evenodd" clip-rule="evenodd" d="M2.66607 2.16244C2.24101 2.58272 2 3.38154 2 5.14037V13.3604C2 15.1196 2.24115 15.9177 2.66556 16.3365C3.09272 16.7581 3.90679 16.9954 5.68789 16.9904L5.69 16.9904L16.81 16.9904C18.591 16.9904 19.4059 16.7515 19.8339 16.3283C20.259 15.908 20.5 15.1092 20.5 13.3504V5.14037C20.5 3.38147 20.2589 2.58312 19.8332 2.16293C19.4039 1.73932 18.5863 1.50037 16.8 1.50037H5.69C3.909 1.50037 3.09409 1.73924 2.66607 2.16244ZM1.61143 1.09579C2.51591 0.201491 3.921 0.000366211 5.69 0.000366211H16.8C18.5737 0.000366211 19.9811 0.20141 20.8868 1.0953C21.7961 1.99261 22 3.38926 22 5.14037V13.3504C22 15.1015 21.796 16.4977 20.8886 17.3949C19.9841 18.2892 18.579 18.4904 16.81 18.4904H5.69074C3.92249 18.4952 2.51704 18.2974 1.61194 17.4042C0.703853 16.508 0.5 15.1112 0.5 13.3604V5.14037C0.5 3.38919 0.703993 1.99302 1.61143 1.09579Z" fill="#3A3A3A"/>
</svg>
