<svg width="25" height="24" viewBox="0 0 25 24" fill="none" xmlns="http://www.w3.org/2000/svg">
<g clip-path="url(#clip0_216_3974)">
<path d="M12.3955 0C5.76815 0 0.395508 5.37264 0.395508 12C0.395508 17.6275 4.27007 22.3498 9.49679 23.6467V15.6672H7.02239V12H9.49679V10.4198C9.49679 6.33552 11.3453 4.4424 15.3552 4.4424C16.1155 4.4424 17.4273 4.59168 17.964 4.74048V8.06448C17.6808 8.03472 17.1888 8.01984 16.5777 8.01984C14.6102 8.01984 13.8499 8.76528 13.8499 10.703V12H17.7696L17.0961 15.6672H13.8499V23.9122C19.7918 23.1946 24.396 18.1354 24.396 12C24.3955 5.37264 19.0229 0 12.3955 0Z" fill="#050B21"/>
</g>
<defs>
<clipPath id="clip0_216_3974">
<rect width="24" height="24" fill="white" transform="translate(0.395508)"/>
</clipPath>
</defs>
</svg>
