<svg width="25" height="24" viewBox="0 0 25 24" fill="none" xmlns="http://www.w3.org/2000/svg">
<g clip-path="url(#clip0_216_3975)">
<path d="M12.3955 2.16094C15.6018 2.16094 15.9814 2.175 17.2424 2.23125C18.4143 2.28281 19.0471 2.47969 19.4689 2.64375C20.0268 2.85938 20.4299 3.12188 20.8471 3.53906C21.2689 3.96094 21.5268 4.35938 21.7424 4.91719C21.9064 5.33906 22.1033 5.97656 22.1549 7.14375C22.2111 8.40937 22.2252 8.78906 22.2252 11.9906C22.2252 15.1969 22.2111 15.5766 22.1549 16.8375C22.1033 18.0094 21.9064 18.6422 21.7424 19.0641C21.5268 19.6219 21.2643 20.025 20.8471 20.4422C20.4252 20.8641 20.0268 21.1219 19.4689 21.3375C19.0471 21.5016 18.4096 21.6984 17.2424 21.75C15.9768 21.8062 15.5971 21.8203 12.3955 21.8203C9.18926 21.8203 8.80957 21.8062 7.54863 21.75C6.37676 21.6984 5.74395 21.5016 5.32207 21.3375C4.76426 21.1219 4.36113 20.8594 3.94395 20.4422C3.52207 20.0203 3.26426 19.6219 3.04863 19.0641C2.88457 18.6422 2.6877 18.0047 2.63613 16.8375C2.57988 15.5719 2.56582 15.1922 2.56582 11.9906C2.56582 8.78438 2.57988 8.40469 2.63613 7.14375C2.6877 5.97187 2.88457 5.33906 3.04863 4.91719C3.26426 4.35938 3.52676 3.95625 3.94395 3.53906C4.36582 3.11719 4.76426 2.85938 5.32207 2.64375C5.74395 2.47969 6.38145 2.28281 7.54863 2.23125C8.80957 2.175 9.18926 2.16094 12.3955 2.16094ZM12.3955 0C9.1377 0 8.72988 0.0140625 7.4502 0.0703125C6.1752 0.126563 5.29863 0.332812 4.53926 0.628125C3.74707 0.9375 3.07676 1.34531 2.41113 2.01562C1.74082 2.68125 1.33301 3.35156 1.02363 4.13906C0.72832 4.90313 0.52207 5.775 0.46582 7.05C0.40957 8.33437 0.395508 8.74219 0.395508 12C0.395508 15.2578 0.40957 15.6656 0.46582 16.9453C0.52207 18.2203 0.72832 19.0969 1.02363 19.8563C1.33301 20.6484 1.74082 21.3188 2.41113 21.9844C3.07676 22.65 3.74707 23.0625 4.53457 23.3672C5.29863 23.6625 6.17051 23.8687 7.44551 23.925C8.7252 23.9812 9.13301 23.9953 12.3908 23.9953C15.6486 23.9953 16.0564 23.9812 17.3361 23.925C18.6111 23.8687 19.4877 23.6625 20.2471 23.3672C21.0346 23.0625 21.7049 22.65 22.3705 21.9844C23.0361 21.3188 23.4486 20.6484 23.7533 19.8609C24.0486 19.0969 24.2549 18.225 24.3111 16.95C24.3674 15.6703 24.3814 15.2625 24.3814 12.0047C24.3814 8.74688 24.3674 8.33906 24.3111 7.05938C24.2549 5.78438 24.0486 4.90781 23.7533 4.14844C23.458 3.35156 23.0502 2.68125 22.3799 2.01562C21.7143 1.35 21.0439 0.9375 20.2564 0.632812C19.4924 0.3375 18.6205 0.13125 17.3455 0.075C16.0611 0.0140625 15.6533 0 12.3955 0Z" fill="#050B21"/>
<path d="M12.3955 5.83594C8.99238 5.83594 6.23145 8.59688 6.23145 12C6.23145 15.4031 8.99238 18.1641 12.3955 18.1641C15.7986 18.1641 18.5596 15.4031 18.5596 12C18.5596 8.59688 15.7986 5.83594 12.3955 5.83594ZM12.3955 15.9984C10.1877 15.9984 8.39707 14.2078 8.39707 12C8.39707 9.79219 10.1877 8.00156 12.3955 8.00156C14.6033 8.00156 16.3939 9.79219 16.3939 12C16.3939 14.2078 14.6033 15.9984 12.3955 15.9984Z" fill="#050B21"/>
<path d="M20.2424 5.59214C20.2424 6.38902 19.5955 7.0312 18.8033 7.0312C18.0064 7.0312 17.3643 6.38433 17.3643 5.59214C17.3643 4.79526 18.0111 4.15308 18.8033 4.15308C19.5955 4.15308 20.2424 4.79995 20.2424 5.59214Z" fill="#050B21"/>
</g>
<defs>
<clipPath id="clip0_216_3975">
<rect width="24" height="24" fill="white" transform="translate(0.395508)"/>
</clipPath>
</defs>
</svg>
