<svg width="14" height="14" viewBox="0 0 14 14" fill="none" xmlns="http://www.w3.org/2000/svg">
<path d="M1.54577 7.56552H6.14119V12.1609C6.14119 12.628 6.5254 13.0198 7.00001 13.0198C7.47462 13.0198 7.85882 12.628 7.85882 12.1609V7.56552H12.4542C12.9213 7.56552 13.3131 7.18131 13.3131 6.7067C13.3131 6.23209 12.9213 5.84789 12.4542 5.84789H7.85882V1.25246C7.85882 0.785387 7.47462 0.393646 7.00001 0.393646C6.5254 0.393646 6.14119 0.785387 6.14119 1.25246V5.84789H1.54577C1.07869 5.84789 0.686951 6.23209 0.686951 6.7067C0.686951 7.18131 1.07869 7.56552 1.54577 7.56552Z" fill="#1A0F91"/>
</svg>
