<svg width="16" height="16" viewBox="0 0 16 16" fill="none" xmlns="http://www.w3.org/2000/svg">
<g clip-path="url(#clip0_253_21)">
<path d="M16 8C16 3.58172 12.4183 0 8 0C3.58172 0 0 3.58172 0 8C0 12.4183 3.58172 16 8 16C12.4183 16 16 12.4183 16 8Z" fill="#86A7FC"/>
<path d="M5.24023 6.12852C5.24023 5.77889 5.35248 5.42465 5.57698 5.0658C5.80148 4.70695 6.12905 4.40974 6.55967 4.17417C6.99034 3.93876 7.49271 3.82099 8.0668 3.82086C8.60036 3.82086 9.07145 3.91932 9.48008 4.11624C9.8887 4.31315 10.2043 4.58091 10.427 4.91952C10.6459 5.246 10.7622 5.6305 10.761 6.02361C10.761 6.33645 10.6974 6.61064 10.5703 6.84621C10.4512 7.07129 10.2986 7.27697 10.1176 7.45621C9.94285 7.62739 9.62911 7.91539 9.17642 8.32021C9.07065 8.41486 8.9702 8.51531 8.87555 8.62108C8.81016 8.69325 8.75364 8.77298 8.7072 8.85858C8.67153 8.9273 8.64287 8.99943 8.62164 9.07389C8.60135 9.14568 8.57097 9.27173 8.53052 9.45202C8.46056 9.83483 8.24159 10.0262 7.87361 10.0261C7.78467 10.0284 7.69615 10.013 7.61322 9.9808C7.53029 9.94858 7.45458 9.90019 7.39052 9.83846C7.25983 9.71346 7.1945 9.5276 7.19455 9.28089C7.19455 8.97175 7.24238 8.70404 7.33805 8.47777C7.42931 8.25825 7.55823 8.05637 7.71898 7.88124C7.92199 7.66719 8.13572 7.46359 8.35936 7.27121C8.59488 7.06514 8.76512 6.90964 8.87008 6.80471C8.97427 6.70075 9.06344 6.58276 9.13502 6.45414C9.20661 6.32597 9.2437 6.18139 9.24264 6.03458C9.24481 5.89403 9.21658 5.75467 9.1599 5.62604C9.10321 5.4974 9.0194 5.38254 8.9142 5.2893C8.69516 5.08697 8.41269 4.98576 8.0668 4.98567C7.66192 4.98567 7.36382 5.08776 7.17248 5.29192C6.98115 5.49609 6.81919 5.79696 6.68661 6.19452C6.56146 6.61066 6.32409 6.81874 5.97448 6.81874C5.87714 6.82068 5.78046 6.80229 5.69062 6.76475C5.60078 6.7272 5.51977 6.67132 5.45277 6.60067C5.31108 6.45524 5.24023 6.29785 5.24023 6.12852ZM7.93433 12.1791C7.71803 12.1822 7.50838 12.1044 7.34639 11.961C7.17885 11.8157 7.09511 11.6124 7.09517 11.351C7.09283 11.242 7.11322 11.1336 7.15503 11.0329C7.19685 10.9321 7.25917 10.8412 7.33805 10.7658C7.41638 10.6882 7.50956 10.6272 7.61201 10.5864C7.71446 10.5456 7.82408 10.5258 7.93433 10.5283C8.04279 10.5268 8.15046 10.547 8.25097 10.5878C8.35148 10.6285 8.44279 10.6891 8.51948 10.7658C8.59617 10.8425 8.65669 10.9338 8.69745 11.0344C8.73822 11.1349 8.7584 11.2426 8.7568 11.351C8.7568 11.6087 8.67397 11.8111 8.50833 11.9583C8.35189 12.1019 8.14673 12.1809 7.93433 12.1791Z" fill="white"/>
</g>
<defs>
<clipPath id="clip0_253_21">
<rect width="16" height="16" fill="white"/>
</clipPath>
</defs>
</svg>
