<svg width="24" height="25" viewBox="0 0 24 25" fill="none" xmlns="http://www.w3.org/2000/svg">
<path d="M19.66 10.14L19.3 9.2L21.16 8.5C20.24 6.38 18.6 4.68 16.54 3.64L15.74 5.42L14.82 5L15.62 3.2C14.5 2.76 13.28 2.5 12 2.5C10.94 2.5 9.92 2.72 8.96 3L9.64 4.84L8.7 5.2L8 3.34C5.88 4.26 4.18 5.9 3.14 7.96L4.92 8.76L4.5 9.68L2.7 8.88C2.26 10 2 11.22 2 12.5C2 13.56 2.22 14.58 2.5 15.54L4.34 14.86L4.7 15.8L2.84 16.5C3.76 18.62 5.4 20.32 7.46 21.36L8.26 19.58L9.18 20L8.38 21.8C9.5 22.24 10.72 22.5 12 22.5C13.06 22.5 14.08 22.28 15.04 22L14.36 20.16L15.3 19.8L16 21.66C18.12 20.74 19.82 19.1 20.86 17.04L19.08 16.24L19.5 15.32L21.3 16.12C21.74 15 22 13.78 22 12.5C22 11.44 21.78 10.42 21.5 9.46L19.66 10.14ZM14.3 18.04C11.24 19.3 7.72 17.86 6.46 14.8C5.2 11.74 6.64 8.22 9.7 6.96C12.76 5.7 16.28 7.14 17.54 10.2C18.82 13.26 17.36 16.78 14.3 18.04Z" fill="#90A3BF"/>
</svg>
