<svg width="22" height="20" viewBox="0 0 22 20" fill="none" xmlns="http://www.w3.org/2000/svg">
<path fill-rule="evenodd" clip-rule="evenodd" d="M2.85156 13.3604C3.26578 13.3604 3.60156 13.6961 3.60156 14.1104C3.60156 15.271 4.7039 16.3004 6.43158 16.3004C8.14596 16.3004 9.25159 15.2636 9.25159 14.1104C9.25159 13.6961 9.58737 13.3604 10.0016 13.3604C10.4158 13.3604 10.7516 13.6961 10.7516 14.1104V16.1404C10.7516 18.369 8.71465 20.0004 6.43158 20.0004C4.1514 20.0004 2.10156 18.3715 2.10156 16.1404V14.1104C2.10156 13.6961 2.43735 13.3604 2.85156 13.3604ZM3.85511 17.106C4.28545 17.8974 5.23028 18.5004 6.43158 18.5004C7.63358 18.5004 8.57568 17.8959 9.0024 17.1015C8.26279 17.5534 7.35857 17.8004 6.43158 17.8004C5.5022 17.8004 4.59616 17.5559 3.85511 17.106Z" fill="#3A3A3A"/>
<path fill-rule="evenodd" clip-rule="evenodd" d="M6.40979 9.00977C5.5914 9.00977 4.87994 9.29024 4.37431 9.73363L4.3737 9.73417C3.87368 10.1717 3.58984 10.7446 3.58984 11.3597C3.58984 11.7142 3.68771 12.0406 3.86085 12.3304C4.2883 13.0227 5.22611 13.5497 6.4198 13.5497C7.6183 13.5497 8.55252 13.0293 8.97786 12.3319C9.15158 12.0416 9.24982 11.7147 9.24982 11.3597C9.24982 10.7427 8.96501 10.167 8.45968 9.7459L8.45022 9.73802L8.45029 9.73795C7.93852 9.29704 7.22289 9.00977 6.40979 9.00977ZM3.38533 8.60584C4.17971 7.90924 5.24818 7.50977 6.40979 7.50977C7.5744 7.50977 8.63694 7.92082 9.42471 8.59754C10.2366 9.2763 10.7498 10.2589 10.7498 11.3597C10.7498 12.004 10.5685 12.5963 10.2629 13.1056L10.2606 13.1095L10.2606 13.1095C9.50538 14.3511 8.0202 15.0497 6.4198 15.0497C4.81544 15.0497 3.33433 14.3385 2.58082 13.1124L2.57663 13.1056L2.57667 13.1056C2.27108 12.5963 2.08984 12.0039 2.08984 11.3597C2.08984 10.2549 2.60597 9.28779 3.38594 8.60531L3.87982 9.16974L3.38533 8.60584Z" fill="#3A3A3A"/>
<path fill-rule="evenodd" clip-rule="evenodd" d="M6.43158 9C4.76321 9 3.60156 10.1498 3.60156 11.36V14.11C3.60156 15.2609 4.71426 16.3 6.43158 16.3C8.14779 16.3 9.25159 15.2718 9.25159 14.11V11.36C9.25159 10.743 8.96628 10.1616 8.46991 9.72631C7.95829 9.28646 7.24354 9 6.43158 9ZM2.10156 11.36C2.10156 9.13014 4.13995 7.5 6.43158 7.5C7.59848 7.5 8.66291 7.91268 9.45114 8.59177L9.4555 8.59552L9.45549 8.59554C10.2378 9.28004 10.7516 10.2579 10.7516 11.36V14.11C10.7516 16.3882 8.65537 17.8 6.43158 17.8C4.2089 17.8 2.10156 16.3791 2.10156 14.11V11.36Z" fill="#3A3A3A"/>
<path fill-rule="evenodd" clip-rule="evenodd" d="M18.1702 7.95001C17.8112 7.95001 17.4954 8.08923 17.2676 8.3232L17.2541 8.33667C16.9881 8.59638 16.8395 8.96616 16.8769 9.35889L16.8777 9.3677L16.8777 9.36771C16.9306 10.0027 17.5411 10.55 18.2902 10.55H20.233C20.3947 10.5396 20.5002 10.4132 20.5002 10.28V8.21997C20.5002 8.08685 20.3947 7.96044 20.233 7.95001H18.1702ZM16.1995 7.26996C16.7112 6.74815 17.4126 6.45001 18.1702 6.45001H20.2502C20.2592 6.45001 20.2681 6.45017 20.277 6.45049C21.23 6.48453 22.0002 7.2557 22.0002 8.21997V10.28C22.0002 11.2443 21.23 12.0155 20.277 12.0495C20.2681 12.0498 20.2592 12.05 20.2502 12.05H18.2902C16.8807 12.05 15.5126 11.0193 15.3832 9.4967C15.3025 8.63451 15.6307 7.82905 16.1995 7.26996Z" fill="#3A3A3A"/>
<path fill-rule="evenodd" clip-rule="evenodd" d="M6.25 1.5C6.00575 1.5 5.77398 1.51744 5.55405 1.55128L5.53339 1.55416C4.42606 1.69312 3.55559 2.16721 2.95955 2.86651C2.36197 3.56761 2 4.54287 2 5.75V7.75C2 8.16421 1.66421 8.5 1.25 8.5C0.835786 8.5 0.5 8.16421 0.5 7.75V5.75C0.5 4.23713 0.958031 2.90239 1.81796 1.89349C2.67737 0.88519 3.89812 0.249902 5.33633 0.0671331C5.63313 0.0220378 5.93789 0 6.25 0H15.25C15.5197 0 15.8108 0.00975299 16.1045 0.0571092C17.555 0.229744 18.7895 0.860903 19.6603 1.87C20.5333 2.88163 21 4.2253 21 5.75V7.20001C21 7.61423 20.6642 7.95001 20.25 7.95001H18.17C17.8109 7.95001 17.4951 8.08923 17.2673 8.3232L17.2539 8.33667C16.9878 8.59638 16.8392 8.96616 16.8766 9.35889L16.8775 9.3677L16.8774 9.36771C16.9303 10.0027 17.5409 10.55 18.29 10.55H20.25C20.6642 10.55 21 10.8858 21 11.3V12.75C21 14.4204 20.4399 15.8707 19.4053 16.9053C18.3707 17.9399 16.9204 18.5 15.25 18.5H12.75C12.3358 18.5 12 18.1642 12 17.75C12 17.3358 12.3358 17 12.75 17H15.25C16.5796 17 17.6293 16.5601 18.3447 15.8447C19.0601 15.1293 19.5 14.0796 19.5 12.75V12.05H18.29C16.8804 12.05 15.5123 11.0193 15.383 9.49669C15.3022 8.6345 15.6305 7.82904 16.1993 7.26995C16.7109 6.74815 17.4123 6.45001 18.17 6.45001H19.5V5.75C19.5 4.5347 19.1317 3.55336 18.5247 2.84999C17.9191 2.14822 17.0351 1.67541 15.9134 1.54497C15.9011 1.54354 15.8889 1.54181 15.8767 1.53978C15.6968 1.5098 15.4946 1.5 15.25 1.5H6.25Z" fill="#3A3A3A"/>
</svg>
