<svg width="25" height="24" viewBox="0 0 25 24" fill="none" xmlns="http://www.w3.org/2000/svg">
<path d="M0.395508 23.9999L2.0825 17.837C1.04151 16.033 0.494508 13.988 0.495508 11.891C0.498508 5.33499 5.8335 0 12.3885 0C15.5695 0.000999998 18.5555 1.24 20.8015 3.48799C23.0465 5.73599 24.2825 8.72398 24.2815 11.902C24.2785 18.459 18.9435 23.7939 12.3885 23.7939C10.3985 23.7929 8.43749 23.2939 6.70049 22.346L0.395508 23.9999ZM6.99249 20.193C8.66849 21.188 10.2685 21.784 12.3845 21.785C17.8325 21.785 22.2705 17.351 22.2735 11.9C22.2755 6.43799 17.8585 2.01 12.3925 2.008C6.94049 2.008 2.5055 6.44199 2.5035 11.892C2.5025 14.117 3.1545 15.783 4.2495 17.526L3.2505 21.174L6.99249 20.193ZM18.3795 14.729C18.3055 14.605 18.1075 14.531 17.8095 14.382C17.5125 14.233 16.0515 13.514 15.7785 13.415C15.5065 13.316 15.3085 13.266 15.1095 13.564C14.9115 13.861 14.3415 14.531 14.1685 14.729C13.9955 14.927 13.8215 14.952 13.5245 14.803C13.2275 14.654 12.2695 14.341 11.1345 13.328C10.2515 12.54 9.65449 11.567 9.48149 11.269C9.30849 10.972 9.46349 10.811 9.61149 10.663C9.74549 10.53 9.90849 10.316 10.0575 10.142C10.2085 9.96998 10.2575 9.84598 10.3575 9.64698C10.4565 9.44898 10.4075 9.27498 10.3325 9.12598C10.2575 8.97798 9.66349 7.51498 9.41649 6.91998C9.17449 6.34099 8.92949 6.41899 8.74749 6.40999L8.17749 6.39999C7.97949 6.39999 7.65749 6.47399 7.38549 6.77199C7.11349 7.06998 6.34549 7.78798 6.34549 9.25098C6.34549 10.714 7.41049 12.127 7.55849 12.325C7.70749 12.523 9.65349 15.525 12.6345 16.812C13.3435 17.118 13.8975 17.301 14.3285 17.438C15.0405 17.664 15.6885 17.632 16.2005 17.556C16.7715 17.471 17.9585 16.837 18.2065 16.143C18.4545 15.448 18.4545 14.853 18.3795 14.729Z" fill="#050B21"/>
</svg>
